<svg id="Layer_1" data-name="Layer 1" xmlns="http://www.w3.org/2000/svg" viewBox="0 0 480 125.04"><defs><style>.cls-1{fill:#fff;}</style></defs><path class="cls-1" d="M1441.33,431.15V547.31h-480v-125c.41.14.84.25,1.23.42q51.71,22.88,103.42,45.73a3.24,3.24,0,0,0,1.92.18q23.74-5.81,47.46-11.68l84.9-20.93a4.38,4.38,0,0,1,1.87-.06q27.06,5.81,54.1,11.68,38.52,8.33,77.06,16.64a5.22,5.22,0,0,0,2.54-.14q46-14.28,91.93-28.65C1432.29,434.05,1436.81,432.59,1441.33,431.15Z" transform="translate(-961.33 -422.27)"/></svg>